<?xml version="1.0" encoding="UTF-8" standalone="no"?>
<!DOCTYPE svg PUBLIC "-//W3C//DTD SVG 1.1//EN" "http://www.w3.org/Graphics/SVG/1.1/DTD/svg11.dtd">
<svg width="100%" height="100%" viewBox="0 0 67 67" version="1.1" xmlns="http://www.w3.org/2000/svg" xmlns:xlink="http://www.w3.org/1999/xlink" xml:space="preserve" xmlns:serif="http://www.serif.com/" style="fill-rule:evenodd;clip-rule:evenodd;stroke-linejoin:round;stroke-miterlimit:2;">
    <g transform="matrix(1.11667,0,0,1.11667,-4.46667,-4.46667)">
        <path d="M38.167,22.283C35.548,23.236 33.893,25.694 34.081,28.384L34.144,29.422L33.096,29.295C29.283,28.808 25.951,27.156 23.122,24.38L21.739,23.003L21.383,24.02C20.629,26.287 21.111,28.681 22.682,30.291C23.52,31.181 23.331,31.308 21.886,30.778C21.383,30.609 20.943,30.482 20.901,30.545C20.755,30.694 21.257,32.621 21.655,33.384C22.2,34.444 23.31,35.481 24.526,36.096L25.553,36.583L24.338,36.604C23.165,36.604 23.123,36.625 23.249,37.071C23.668,38.448 25.323,39.91 27.167,40.546L28.466,40.99L27.335,41.668C25.659,42.644 23.689,43.194 21.719,43.235C20.775,43.256 20,43.341 20,43.405C20,43.616 22.557,44.802 24.044,45.269C28.507,46.646 33.809,46.052 37.79,43.701C40.619,42.027 43.447,38.701 44.768,35.48C45.481,33.765 46.193,30.629 46.193,29.126C46.193,28.151 46.256,28.024 47.429,26.859C48.121,26.181 48.77,25.44 48.896,25.228C49.106,24.825 49.084,24.825 48.016,25.185C46.235,25.821 45.983,25.736 46.864,24.783C47.513,24.105 48.289,22.876 48.289,22.516C48.289,22.453 47.975,22.558 47.618,22.749C47.241,22.961 46.403,23.279 45.774,23.469L44.643,23.83L43.616,23.13C43.05,22.749 42.255,22.325 41.835,22.198C40.766,21.902 39.131,21.944 38.167,22.283ZM34,64C17.432,64 4,50.568 4,34C4,17.431 17.432,4 34,4C50.568,4 64,17.431 64,34C64,50.568 50.568,64 34,64Z" style="fill:rgb(71,70,69);"/>
    </g>
</svg>
